<?xml version="1.0" ?><svg id="Layer_1" style="enable-background:new 0 0 512 512;" version="1.1" viewBox="0 0 512 512" xml:space="preserve" xmlns="http://www.w3.org/2000/svg" xmlns:xlink="http://www.w3.org/1999/xlink"><g id="XMLID_19617_"><g id="XMLID_6745_"><path d="M203.4,166.6c-0.2,0-0.4,0-0.6-0.1c-10.3-2-18.4-3.4-27-4.9c-8.8-1.5-18-3.1-30-5.4    c-7.4-1.4-15.1-2.9-22.3-5.9c-16.7-7-31.6-22.3-38.8-39.9c-10.3-25.3-5.9-51.7,11.6-68.7c23.6-23,66.3-22.1,93.9-7.8    c21.6,11.2,35.2,32.9,46.2,50.3c14.2,22.7,25.2,49.4,31.7,77.2c0.4,1.6-0.6,3.2-2.2,3.6c-1.6,0.4-3.2-0.6-3.6-2.2    c-6.4-27.2-17.1-53.2-31-75.4c-10.5-16.8-23.7-37.8-43.8-48.2c-25.7-13.3-65.3-14.4-87,6.8c-15.7,15.3-19.6,39.1-10.2,62.2    c6.6,16.2,20.2,30.2,35.5,36.7c6.6,2.8,14,4.2,21.1,5.6c11.9,2.3,21,3.9,29.8,5.4c8.6,1.5,16.7,2.9,27.1,4.9    c1.6,0.3,2.7,1.9,2.4,3.5C206,165.6,204.8,166.6,203.4,166.6z" id="XMLID_13375_"/></g><g id="XMLID_6744_"><path d="M215.8,166.7c-0.4,0-0.7-0.1-1.1-0.2c-6.8-2.6-13.1-6.1-19.1-9.6c-2.5-1.4-5.1-2.9-7.7-4.3    c-4.4-2.3-10.2-5.1-16.3-8c-8.9-4.2-18.1-8.5-24.5-12.3c-13.9-8.3-23.1-23.5-22.9-37.7c0.1-11.7,6.4-21.8,17.8-28.3    c9.6-5.5,25.9-2,30.7-0.8c18,4.5,31.5,21.3,39.5,34.5c4.9,8,10.1,16,15.1,23.7c7.9,12.2,16.1,24.7,23.4,37.8    c0.8,1.4,0.3,3.3-1.2,4.1c-1.5,0.8-3.3,0.3-4.1-1.2c-7.1-12.8-15.3-25.3-23.1-37.4c-5.1-7.7-10.3-15.8-15.2-23.8    c-7.5-12.3-19.8-27.7-35.9-31.8c-8.3-2.1-20.1-3.3-26.2,0.2c-9.6,5.5-14.7,13.5-14.8,23.2c-0.1,12.2,7.9,25.3,20,32.5    c6.1,3.7,15.2,7.9,23.9,12.1c6.2,2.9,12.1,5.7,16.6,8.1c2.6,1.4,5.3,2.9,7.8,4.4c6.1,3.5,11.9,6.8,18.3,9.2    c1.5,0.6,2.3,2.3,1.7,3.9C218.1,166,217,166.7,215.8,166.7z" id="XMLID_13374_"/></g><g id="XMLID_5084_"><path d="M339.2,165.9c-1.1,0-2.1-0.6-2.6-1.6c-0.8-1.5-0.3-3.3,1.2-4.1c25.7-13.9,44.1-29.4,53.2-44.7    c11.8-19.8,15.5-45.9,9.3-66.7c-4.5-15.1-13.9-26.5-27.1-33.1c-24.4-12-54.7-0.7-70.8,15.9c-24.6,25.4-36.9,62-45.6,94.6    c-0.4,1.6-2.1,2.5-3.7,2.1c-1.6-0.4-2.5-2.1-2.1-3.7c9-33.3,21.6-70.8,47.1-97.2c17.6-18.2,50.8-30.3,77.8-17.1    c14.8,7.3,25.3,20,30.2,36.7c6.6,22.3,2.7,50.3-9.9,71.4c-9.8,16.5-28.5,32.2-55.5,46.9C340.2,165.8,339.7,165.9,339.2,165.9z" id="XMLID_13373_"/></g><g id="XMLID_6742_"><path d="M270.7,165.9c-1.1,0-2.2-0.6-2.7-1.7c-0.7-1.5-0.1-3.3,1.4-4c18.6-8.9,30.8-15.3,47.7-24.3    c2.8-1.5,5.7-3.1,8.8-4.7c12.7-6.7,28.9-18.1,34-33.8c2.6-8.1,4.5-19.9,1.4-26.2c-4.9-9.9-12.6-15.5-22.2-16.2    c-12.2-0.9-25.7,6.3-33.7,18c-4,5.9-8.9,14.6-13.5,23.1c-3.3,6-6.4,11.7-9.1,16c-5.2,8.4-14.2,26-18.3,34.9    c-0.7,1.5-2.5,2.2-4,1.5c-1.5-0.7-2.2-2.5-1.5-4c4.1-9.1,13.3-27,18.6-35.6c2.6-4.2,5.7-9.8,9-15.8c4.7-8.6,9.6-17.5,13.8-23.6    c9.2-13.3,24.9-21.6,39.1-20.5c11.7,0.8,21.3,7.8,27.1,19.5c4.9,9.9,0.4,26-1.1,30.7c-5.7,17.7-23.2,30.1-36.9,37.3    c-3.1,1.6-6,3.2-8.8,4.7c-16.3,8.7-29.2,15.5-48,24.4C271.6,165.8,271.1,165.9,270.7,165.9z" id="XMLID_13372_"/></g><g id="XMLID_6746_"><path d="M439.2,263.8c-3.4,0-6.8-0.2-10-0.3c-2.6-0.1-5.1-0.2-7.2-0.2c0,0-0.1,0-0.1,0    c-8.3,0-15.6-0.4-22.6-0.8c-7-0.4-14.2-0.8-22.3-0.8c0,0-0.1,0-0.1,0l-76,0c-1.7,0-3-1.3-3-3s1.3-3,3-3l76,0c0,0,0.1,0,0.1,0    c8.3,0,15.6,0.4,22.6,0.8c7,0.4,14.2,0.8,22.3,0.8c0,0,0.1,0,0.1,0c2.2,0,4.7,0.1,7.4,0.3c8.3,0.4,18.6,0.9,24.4-1.9    c1-0.5,1.9-1.1,2.5-2c2.2-2.8,2.4-7.4,2.4-11.6c0-6.9,0.2-14,0.4-20.8c0.4-11,0.8-22.4-0.1-33.5c-1-13-7.2-20.1-18.2-21.2    c-10.4-1-21.4-0.7-32.1-0.3c-5.3,0.2-10.8,0.4-16.1,0.4l-304.2,0.1c0,0,0,0,0,0c-2,0-4.1,0-6.1-0.1c-4-0.1-8.1-0.2-12,0.1    c-14.2,1.1-17.2,12.3-17.2,21.6l0,51.4c0,2.1-0.2,4.2-0.4,6.2c-0.1,1.3-0.3,2.6-0.3,3.9c-0.1,1.1,0,3.1,1,4.1    c0.5,0.5,1.3,0.8,2,1.1c6.1,2.4,12.7,2,19.7,1.5l2-0.1c6.2-0.4,12.5-0.4,18.6-0.4c1.7,0,3.4,0,5.1,0c17.3-0.1,34.7-0.1,52-0.1    c25.4,0,50.8,0,76.2,0c1.7,0,3,1.3,3,3c0,1.7-1.3,3-3,3c-25.4,0-50.8,0-76.2,0c-17.3,0-34.7,0.1-52,0.1c-1.7,0-3.4,0-5.1,0    c-6,0-12.2,0-18.2,0.4l-2,0.1c-7.3,0.5-14.9,1-22.3-1.9c-1.3-0.5-2.8-1.2-4-2.4c-2-2-3-5-2.8-8.7c0.1-1.4,0.2-2.8,0.4-4.2    c0.2-1.9,0.4-3.7,0.4-5.5l0-51.4c0-16.5,8.3-26.5,22.8-27.6c4.2-0.3,8.4-0.2,12.6-0.1c2,0,4,0.1,6,0.1c0,0,0,0,0,0l304.2-0.1    c5.2,0,10.7-0.2,15.9-0.4c10.9-0.4,22.1-0.7,32.8,0.3c14,1.4,22.4,10.9,23.6,26.7c0.9,11.4,0.5,23,0.1,34.2    c-0.2,6.7-0.5,13.7-0.4,20.5c0,5.2-0.2,11-3.7,15.4c-1.2,1.5-2.8,2.7-4.6,3.6C451.8,263.2,445.5,263.8,439.2,263.8z" id="XMLID_13376_"/></g><g id="XMLID_6741_"><path d="M229.1,504c-0.8,0-1.6-0.3-2.1-0.9s-0.9-1.3-0.9-2.1l-0.1-337.1c0-0.8,0.3-1.6,0.9-2.1    c0.6-0.6,1.3-0.9,2.1-0.9l71,0c1.7,0,3,1.3,3,3L303,501c0,1.7-1.3,3-3,3L229.1,504z M231.9,166.9l0.1,331.1l65,0l-0.1-331.1    L231.9,166.9z" id="XMLID_13369_"/></g><g id="XMLID_8212_"><path d="M306.7,157.1c-0.2,0-0.3,0-0.5,0c-3.7-0.6-7.1-2.7-9.3-5.7c-1-1.3-0.7-3.2,0.7-4.2    c1.3-1,3.2-0.7,4.2,0.7c1.3,1.7,3.3,3,5.4,3.3c1.6,0.3,2.7,1.8,2.5,3.4C309.4,156.1,308.1,157.1,306.7,157.1z" id="XMLID_12457_"/></g><g id="XMLID_6747_"><path d="M416.2,507.1c-4.3,0-8.2-0.4-11.2-0.7c-10.6-1.1-21.7-0.9-32.4-0.7c-4,0.1-8.1,0.1-12.1,0.1l-243.3,0.1    c-1.9,0-3.8,0-5.7,0.1c-13.7,0.2-29.3,0.5-40.4-10.1c-12.2-11.7-10.6-36-9.3-55.5c0.4-5.4,0.7-10.5,0.7-14.7L62,260.9    c0-1.7,1.3-3,3-3c0,0,0,0,0,0c1.7,0,3,1.3,3,3l0.6,164.8c0,4.4-0.3,9.6-0.7,15.1c-1.2,18.3-2.7,41,7.4,50.7    c9.3,8.9,22.9,8.7,36.1,8.4c2,0,3.9-0.1,5.8-0.1l243.3-0.1c4,0,8.1-0.1,12-0.1c10.9-0.2,22.1-0.4,33.1,0.7    c10.2,1,21.8,1.6,29.6-4.2c9.2-6.9,13-19.9,11.6-39.7c-1-13.8-1.1-29.3-1.2-44.3c0-8.2-0.1-15.9-0.2-23.3    c-0.2-7.6-0.4-15.1-0.6-22.5c-0.8-32-1.6-62.3-1.6-94.7l0-8.7c0-1.7,1.3-3,3-3s3,1.3,3,3l0,8.7c0,32.3,0.8,62.6,1.6,94.5    c0.2,7.4,0.4,14.9,0.6,22.5c0.2,7.4,0.2,15.2,0.2,23.4c0.1,14.9,0.1,30.3,1.1,43.9c1.6,22-2.9,36.7-13.9,44.9    C432.2,506,423.7,507.1,416.2,507.1z" id="XMLID_13377_"/></g></g></svg>